<svg xmlns="http://www.w3.org/2000/svg" width="512" height="512" viewBox="0 0 512 512">
  <defs>
    <linearGradient id="bg" x1="64" y1="48" x2="448" y2="464" gradientUnits="userSpaceOnUse">
      <stop offset="0" stop-color="#b47b24"/>
      <stop offset="1" stop-color="#6f4814"/>
    </linearGradient>
  </defs>
  <rect width="512" height="512" rx="132" fill="#1f1914"/>
  <rect x="48" y="48" width="416" height="416" rx="116" fill="url(#bg)"/>
  <g fill="#fef8f1">
    <path d="M145 153h38l18 73h120l38-52 30 22-48 65c-8 10-20 17-33 17H198l8 31h143v32H191c-20 0-37-13-42-32l-39-156h35z"/>
    <circle cx="214" cy="378" r="30"/>
    <circle cx="329" cy="378" r="30"/>
    <path d="M238 134h68v31h-68z"/>
    <path d="M256 116h31v67h-31z"/>
  </g>
</svg>
